<svg width="404" height="98" viewBox="0 0 404 98" fill="none" xmlns="http://www.w3.org/2000/svg">
<mask id="path-1-outside-1_2503_806" maskUnits="userSpaceOnUse" x="9" y="34" width="157" height="32" fill="black">
<rect fill="white" x="9" y="34" width="157" height="32"/>
<path d="M10.56 64L10.28 62.4C11.2933 62.1333 11.9067 61.92 12.12 61.76C12.36 61.6 12.5867 61.24 12.8 60.68L21.76 35.92H25.08L34.24 61.32C34.3733 61.72 35.16 62.0533 36.6 62.32L36.44 64H27.12L26.88 62.4C28.7467 62.0267 29.68 61.5867 29.68 61.08C29.68 60.8667 29.6267 60.5867 29.52 60.24L27.76 55.04H17.4L15.36 60.72C15.2533 61.04 15.2 61.2667 15.2 61.4C15.2 61.5067 15.28 61.5733 15.44 61.6L18.28 62.36L18.12 64H10.56ZM18.16 52.92H27.08L23.16 41.68C22.9733 41.12 22.88 40.7333 22.88 40.52H22.48L18.16 52.92ZM42.0769 60.72C42.5302 61.04 43.2635 61.36 44.2769 61.68C45.3169 61.9733 46.4769 62.12 47.7569 62.12C49.0369 62.12 50.1035 61.7333 50.9569 60.96C51.8102 60.1867 52.2369 59.1467 52.2369 57.84C52.2369 55.8133 51.0902 54.16 48.7969 52.88C48.2102 52.5867 47.3035 52.1867 46.0769 51.68C44.8502 51.1467 43.9835 50.76 43.4769 50.52C42.9702 50.2533 42.3702 49.8933 41.6769 49.44C41.0102 48.96 40.4902 48.48 40.1169 48C39.1835 46.8533 38.7169 45.4533 38.7169 43.8C38.7169 41.3733 39.6102 39.4533 41.3969 38.04C43.2102 36.6267 45.5569 35.92 48.4369 35.92C50.6235 35.92 52.6769 36.28 54.5969 37C54.6769 37.64 54.7169 38.4933 54.7169 39.56C54.7169 40.6 54.5702 42 54.2769 43.76L51.9569 44.04C51.6635 41.0267 51.3035 39.3467 50.8769 39C50.2369 38.44 49.0635 38.16 47.3569 38.16C45.6769 38.16 44.3702 38.5067 43.4369 39.2C42.5035 39.8667 42.0369 40.8533 42.0369 42.16C42.0369 42.9067 42.1835 43.5733 42.4769 44.16C42.7702 44.7467 43.3035 45.2933 44.0769 45.8C44.8502 46.3067 45.4635 46.6667 45.9169 46.88C46.5835 47.2267 47.5169 47.6533 48.7169 48.16C49.9169 48.6667 50.8502 49.1067 51.5169 49.48C52.1835 49.8533 52.9035 50.3467 53.6769 50.96C55.1702 52.2133 55.9169 54.0267 55.9169 56.4C55.9169 58.7733 55.0635 60.6933 53.3569 62.16C51.6769 63.6267 49.3702 64.36 46.4369 64.36C44.8635 64.36 43.2902 64.1733 41.7169 63.8C40.1702 63.4 39.0369 63.0133 38.3169 62.64C38.2369 62.32 38.1969 61.56 38.1969 60.36C38.1969 59.16 38.3569 57.7067 38.6769 56L40.9569 55.88C41.1702 57.8 41.3435 59.04 41.4769 59.6C41.6369 60.16 41.8369 60.5333 42.0769 60.72ZM59.1344 50.76C59.1344 47.72 59.761 45.0133 61.0144 42.64C62.481 39.84 64.681 37.8933 67.6144 36.8C69.241 36.2133 70.9344 35.92 72.6944 35.92C74.4544 35.92 76.1477 36.0533 77.7744 36.32C79.401 36.5867 80.4677 36.8267 80.9744 37.04C81.1344 38.0267 81.2144 39.0667 81.2144 40.16C81.2144 41.2267 81.1877 42.4267 81.1344 43.76L78.8544 44.08C78.2677 40.9867 77.7477 39.28 77.2944 38.96C77.0544 38.7733 76.4277 38.5733 75.4144 38.36C74.4277 38.1467 73.441 38.04 72.4544 38.04C69.521 38.04 67.3077 39.12 65.8144 41.28C64.321 43.44 63.5744 46.28 63.5744 49.8C63.5744 53.96 64.521 57.0533 66.4144 59.08C68.3077 61.1067 70.6544 62.12 73.4544 62.12C74.4677 62.12 75.4144 62 76.2944 61.76C77.201 61.52 77.7877 61.2933 78.0544 61.08C78.3477 60.8667 78.7877 59.1733 79.3744 56L81.5744 56.08C81.5744 58.1067 81.4277 60.2667 81.1344 62.56C80.3077 63.0133 79.0544 63.4267 77.3744 63.8C75.721 64.1733 74.0277 64.36 72.2944 64.36C67.9477 64.36 64.6677 63.08 62.4544 60.52C60.241 57.96 59.1344 54.7067 59.1344 50.76ZM84.5391 64L84.2991 62.44C85.7124 62.2 86.5657 61.9333 86.8591 61.64C87.1791 61.3467 87.3391 60.7867 87.3391 59.96V40.32C87.3391 39.4933 87.1791 38.9333 86.8591 38.64C86.5657 38.3467 85.7124 38.08 84.2991 37.84L84.5391 36.28H103.179C103.339 37.2667 103.419 38.2533 103.419 39.24C103.419 40.2 103.392 41.2933 103.339 42.52L101.059 42.8C100.686 40.96 100.419 39.8133 100.259 39.36C100.099 38.88 99.9124 38.6267 99.6991 38.6C99.0591 38.52 98.2457 38.4667 97.2591 38.44L91.2191 38.32V49.08H97.2191C97.5657 49.08 97.9924 48.1333 98.4991 46.24L99.7391 46.36C99.7391 48.3067 99.7657 49.6667 99.8191 50.44C99.8991 51.2133 99.9391 51.68 99.9391 51.84C99.9657 52 100.019 52.3867 100.099 53C100.206 53.6133 100.272 54.04 100.299 54.28L98.8591 54.52C98.4324 53 98.1391 52.0667 97.9791 51.72C97.8457 51.3733 97.6857 51.2 97.4991 51.2H91.2191V61.96L94.7791 61.92C97.7924 61.92 99.6324 61.76 100.299 61.44C100.379 61.3867 100.432 61.36 100.459 61.36C100.912 61.2267 101.499 59.6533 102.219 56.64L104.419 56.84C104.446 57.2933 104.459 58.1067 104.459 59.28C104.459 60.4267 104.312 62 104.019 64H84.5391ZM108.211 64L107.971 62.44C109.384 62.2 110.238 61.9333 110.531 61.64C110.851 61.3467 111.011 60.7867 111.011 59.96V40.32C111.011 39.4933 110.851 38.9333 110.531 38.64C110.238 38.3467 109.384 38.08 107.971 37.84L108.211 36.28H111.291H113.651H115.851L129.531 56.44H129.811V41.12C129.811 39.92 129.584 39.12 129.131 38.72C128.704 38.32 127.651 38.0267 125.971 37.84L126.211 36.28H135.611L135.771 37.84L133.291 38.32C132.758 38.4267 132.491 38.7733 132.491 39.36V64H130.131H130.011L114.011 40.32H113.691V60C113.691 60.6667 113.811 61.16 114.051 61.48C114.318 61.8 114.784 62 115.451 62.08L118.251 62.44L118.091 64H108.211ZM139.227 64L138.987 62.44C140.4 62.2 141.253 61.9333 141.547 61.64C141.867 61.3467 142.027 60.7867 142.027 59.96V40.32C142.027 39.4933 141.867 38.9333 141.547 38.64C141.253 38.3467 140.4 38.08 138.987 37.84L139.227 36.28H151.747C154.04 36.28 156.027 36.6533 157.707 37.4C159.387 38.12 160.693 39.12 161.627 40.4C163.44 42.8533 164.347 45.8133 164.347 49.28C164.347 53.0933 163.333 56.4133 161.307 59.24C160.293 60.68 158.88 61.84 157.067 62.72C155.28 63.5733 153.213 64 150.867 64H139.227ZM145.907 60.28C145.907 60.8667 146.187 61.2133 146.747 61.32C148.613 61.6933 150.027 61.88 150.987 61.88C153.947 61.88 156.173 60.8267 157.667 58.72C159.16 56.6133 159.907 53.8 159.907 50.28C159.907 48.0667 159.613 46.1467 159.027 44.52C158.467 42.8933 157.707 41.6533 156.747 40.8C154.933 39.2 152.96 38.4 150.827 38.4H145.907V60.28Z"/>
</mask>
<path d="M10.56 64L10.28 62.4C11.2933 62.1333 11.9067 61.92 12.12 61.76C12.36 61.6 12.5867 61.24 12.8 60.68L21.76 35.92H25.08L34.24 61.32C34.3733 61.72 35.16 62.0533 36.6 62.32L36.44 64H27.12L26.88 62.4C28.7467 62.0267 29.68 61.5867 29.68 61.08C29.68 60.8667 29.6267 60.5867 29.52 60.24L27.76 55.04H17.4L15.36 60.72C15.2533 61.04 15.2 61.2667 15.2 61.4C15.2 61.5067 15.28 61.5733 15.44 61.6L18.28 62.36L18.12 64H10.56ZM18.16 52.92H27.08L23.16 41.68C22.9733 41.12 22.88 40.7333 22.88 40.52H22.48L18.16 52.92ZM42.0769 60.72C42.5302 61.04 43.2635 61.36 44.2769 61.68C45.3169 61.9733 46.4769 62.12 47.7569 62.12C49.0369 62.12 50.1035 61.7333 50.9569 60.96C51.8102 60.1867 52.2369 59.1467 52.2369 57.84C52.2369 55.8133 51.0902 54.16 48.7969 52.88C48.2102 52.5867 47.3035 52.1867 46.0769 51.68C44.8502 51.1467 43.9835 50.76 43.4769 50.52C42.9702 50.2533 42.3702 49.8933 41.6769 49.44C41.0102 48.96 40.4902 48.48 40.1169 48C39.1835 46.8533 38.7169 45.4533 38.7169 43.8C38.7169 41.3733 39.6102 39.4533 41.3969 38.04C43.2102 36.6267 45.5569 35.92 48.4369 35.92C50.6235 35.92 52.6769 36.28 54.5969 37C54.6769 37.64 54.7169 38.4933 54.7169 39.56C54.7169 40.6 54.5702 42 54.2769 43.76L51.9569 44.04C51.6635 41.0267 51.3035 39.3467 50.8769 39C50.2369 38.44 49.0635 38.16 47.3569 38.16C45.6769 38.16 44.3702 38.5067 43.4369 39.2C42.5035 39.8667 42.0369 40.8533 42.0369 42.16C42.0369 42.9067 42.1835 43.5733 42.4769 44.16C42.7702 44.7467 43.3035 45.2933 44.0769 45.8C44.8502 46.3067 45.4635 46.6667 45.9169 46.88C46.5835 47.2267 47.5169 47.6533 48.7169 48.16C49.9169 48.6667 50.8502 49.1067 51.5169 49.48C52.1835 49.8533 52.9035 50.3467 53.6769 50.96C55.1702 52.2133 55.9169 54.0267 55.9169 56.4C55.9169 58.7733 55.0635 60.6933 53.3569 62.16C51.6769 63.6267 49.3702 64.36 46.4369 64.36C44.8635 64.36 43.2902 64.1733 41.7169 63.8C40.1702 63.4 39.0369 63.0133 38.3169 62.64C38.2369 62.32 38.1969 61.56 38.1969 60.36C38.1969 59.16 38.3569 57.7067 38.6769 56L40.9569 55.88C41.1702 57.8 41.3435 59.04 41.4769 59.6C41.6369 60.16 41.8369 60.5333 42.0769 60.72ZM59.1344 50.76C59.1344 47.72 59.761 45.0133 61.0144 42.64C62.481 39.84 64.681 37.8933 67.6144 36.8C69.241 36.2133 70.9344 35.92 72.6944 35.92C74.4544 35.92 76.1477 36.0533 77.7744 36.32C79.401 36.5867 80.4677 36.8267 80.9744 37.04C81.1344 38.0267 81.2144 39.0667 81.2144 40.16C81.2144 41.2267 81.1877 42.4267 81.1344 43.76L78.8544 44.08C78.2677 40.9867 77.7477 39.28 77.2944 38.96C77.0544 38.7733 76.4277 38.5733 75.4144 38.36C74.4277 38.1467 73.441 38.04 72.4544 38.04C69.521 38.04 67.3077 39.12 65.8144 41.28C64.321 43.44 63.5744 46.28 63.5744 49.8C63.5744 53.96 64.521 57.0533 66.4144 59.08C68.3077 61.1067 70.6544 62.12 73.4544 62.12C74.4677 62.12 75.4144 62 76.2944 61.76C77.201 61.52 77.7877 61.2933 78.0544 61.08C78.3477 60.8667 78.7877 59.1733 79.3744 56L81.5744 56.08C81.5744 58.1067 81.4277 60.2667 81.1344 62.56C80.3077 63.0133 79.0544 63.4267 77.3744 63.8C75.721 64.1733 74.0277 64.36 72.2944 64.36C67.9477 64.36 64.6677 63.08 62.4544 60.52C60.241 57.96 59.1344 54.7067 59.1344 50.76ZM84.5391 64L84.2991 62.44C85.7124 62.2 86.5657 61.9333 86.8591 61.64C87.1791 61.3467 87.3391 60.7867 87.3391 59.96V40.32C87.3391 39.4933 87.1791 38.9333 86.8591 38.64C86.5657 38.3467 85.7124 38.08 84.2991 37.84L84.5391 36.28H103.179C103.339 37.2667 103.419 38.2533 103.419 39.24C103.419 40.2 103.392 41.2933 103.339 42.52L101.059 42.8C100.686 40.96 100.419 39.8133 100.259 39.36C100.099 38.88 99.9124 38.6267 99.6991 38.6C99.0591 38.52 98.2457 38.4667 97.2591 38.44L91.2191 38.32V49.08H97.2191C97.5657 49.08 97.9924 48.1333 98.4991 46.24L99.7391 46.36C99.7391 48.3067 99.7657 49.6667 99.8191 50.44C99.8991 51.2133 99.9391 51.68 99.9391 51.84C99.9657 52 100.019 52.3867 100.099 53C100.206 53.6133 100.272 54.04 100.299 54.28L98.8591 54.52C98.4324 53 98.1391 52.0667 97.9791 51.72C97.8457 51.3733 97.6857 51.2 97.4991 51.2H91.2191V61.96L94.7791 61.92C97.7924 61.92 99.6324 61.76 100.299 61.44C100.379 61.3867 100.432 61.36 100.459 61.36C100.912 61.2267 101.499 59.6533 102.219 56.64L104.419 56.84C104.446 57.2933 104.459 58.1067 104.459 59.28C104.459 60.4267 104.312 62 104.019 64H84.5391ZM108.211 64L107.971 62.44C109.384 62.2 110.238 61.9333 110.531 61.64C110.851 61.3467 111.011 60.7867 111.011 59.96V40.32C111.011 39.4933 110.851 38.9333 110.531 38.64C110.238 38.3467 109.384 38.08 107.971 37.84L108.211 36.28H111.291H113.651H115.851L129.531 56.44H129.811V41.12C129.811 39.92 129.584 39.12 129.131 38.72C128.704 38.32 127.651 38.0267 125.971 37.84L126.211 36.28H135.611L135.771 37.84L133.291 38.32C132.758 38.4267 132.491 38.7733 132.491 39.36V64H130.131H130.011L114.011 40.32H113.691V60C113.691 60.6667 113.811 61.16 114.051 61.48C114.318 61.8 114.784 62 115.451 62.08L118.251 62.44L118.091 64H108.211ZM139.227 64L138.987 62.44C140.4 62.2 141.253 61.9333 141.547 61.64C141.867 61.3467 142.027 60.7867 142.027 59.96V40.32C142.027 39.4933 141.867 38.9333 141.547 38.64C141.253 38.3467 140.4 38.08 138.987 37.84L139.227 36.28H151.747C154.04 36.28 156.027 36.6533 157.707 37.4C159.387 38.12 160.693 39.12 161.627 40.4C163.44 42.8533 164.347 45.8133 164.347 49.28C164.347 53.0933 163.333 56.4133 161.307 59.24C160.293 60.68 158.88 61.84 157.067 62.72C155.28 63.5733 153.213 64 150.867 64H139.227ZM145.907 60.28C145.907 60.8667 146.187 61.2133 146.747 61.32C148.613 61.6933 150.027 61.88 150.987 61.88C153.947 61.88 156.173 60.8267 157.667 58.72C159.16 56.6133 159.907 53.8 159.907 50.28C159.907 48.0667 159.613 46.1467 159.027 44.52C158.467 42.8933 157.707 41.6533 156.747 40.8C154.933 39.2 152.96 38.4 150.827 38.4H145.907V60.28Z" fill="url(#paint0_angular_2503_806)"/>
<path d="M10.56 64L9.57497 64.1724L9.7198 65H10.56V64ZM10.28 62.4L10.0255 61.4329L9.13651 61.6669L9.29497 62.5724L10.28 62.4ZM12.12 61.76L11.5653 60.9279L11.5422 60.9433L11.52 60.96L12.12 61.76ZM12.8 60.68L13.7345 61.036L13.7375 61.0282L13.7403 61.0203L12.8 60.68ZM21.76 35.92V34.92H21.0584L20.8197 35.5797L21.76 35.92ZM25.08 35.92L26.0207 35.5808L25.7824 34.92H25.08V35.92ZM34.24 61.32L35.1887 61.0038L35.1848 60.9922L35.1807 60.9808L34.24 61.32ZM36.6 62.32L37.5955 62.4148L37.6823 61.5034L36.7821 61.3367L36.6 62.32ZM36.44 64V65H37.3493L37.4355 64.0948L36.44 64ZM27.12 64L26.1311 64.1483L26.2588 65H27.12V64ZM26.88 62.4L26.6839 61.4194L25.7498 61.6062L25.8911 62.5483L26.88 62.4ZM29.52 60.24L30.4758 59.9459L30.4717 59.9326L30.4672 59.9194L29.52 60.24ZM27.76 55.04L28.7072 54.7194L28.4773 54.04H27.76V55.04ZM17.4 55.04V54.04H16.6966L16.4589 54.702L17.4 55.04ZM15.36 60.72L14.4189 60.382L14.415 60.3928L14.4113 60.4038L15.36 60.72ZM15.44 61.6L15.6985 60.634L15.6519 60.6215L15.6044 60.6136L15.44 61.6ZM18.28 62.36L19.2753 62.4571L19.3576 61.6132L18.5385 61.394L18.28 62.36ZM18.12 64V65H19.0272L19.1153 64.0971L18.12 64ZM18.16 52.92L17.2157 52.591L16.7527 53.92H18.16V52.92ZM27.08 52.92V53.92H28.4878L28.0242 52.5907L27.08 52.92ZM23.16 41.68L22.2112 41.9963L22.2158 42.0093L23.16 41.68ZM22.88 40.52H23.88V39.52H22.88V40.52ZM22.48 40.52V39.52H21.7694L21.5357 40.191L22.48 40.52ZM11.545 63.8276L11.265 62.2276L9.29497 62.5724L9.57497 64.1724L11.545 63.8276ZM10.5345 63.3671C11.053 63.2306 11.4874 63.1032 11.8285 62.9845C12.1326 62.8787 12.4754 62.7434 12.72 62.56L11.52 60.96C11.5513 60.9366 11.4807 60.988 11.1715 61.0955C10.8993 61.1902 10.5203 61.3027 10.0255 61.4329L10.5345 63.3671ZM12.6747 62.592C13.1947 62.2454 13.5122 61.6194 13.7345 61.036L11.8655 60.324C11.7736 60.5652 11.6909 60.7305 11.6238 60.8372C11.5529 60.9498 11.5261 60.9541 11.5653 60.9279L12.6747 62.592ZM13.7403 61.0203L22.7003 36.2603L20.8197 35.5797L11.8597 60.3397L13.7403 61.0203ZM21.76 36.92H25.08V34.92H21.76V36.92ZM24.1393 36.2592L33.2993 61.6592L35.1807 60.9808L26.0207 35.5808L24.1393 36.2592ZM33.2913 61.6362C33.4055 61.9788 33.6305 62.2231 33.8392 62.3895C34.0494 62.557 34.2937 62.6864 34.5399 62.7908C35.0309 62.9988 35.6694 63.1647 36.4179 63.3033L36.7821 61.3367C36.0906 61.2087 35.6158 61.0745 35.3201 60.9492C35.173 60.8869 35.1056 60.8413 35.0858 60.8255C35.0645 60.8086 35.1412 60.8612 35.1887 61.0038L33.2913 61.6362ZM35.6045 62.2252L35.4445 63.9052L37.4355 64.0948L37.5955 62.4148L35.6045 62.2252ZM36.44 63H27.12V65H36.44V63ZM28.1089 63.8517L27.8689 62.2517L25.8911 62.5483L26.1311 64.1483L28.1089 63.8517ZM27.0761 63.3806C28.0342 63.189 28.8288 62.9668 29.4064 62.6945C29.6939 62.559 29.9853 62.3847 30.2171 62.1496C30.4586 61.9046 30.68 61.5437 30.68 61.08H28.68C28.68 60.8697 28.7847 60.7537 28.7929 60.7454C28.7957 60.7426 28.782 60.7568 28.7399 60.7843C28.6984 60.8114 28.638 60.8457 28.5536 60.8855C28.1978 61.0532 27.5925 61.2377 26.6839 61.4194L27.0761 63.3806ZM30.68 61.08C30.68 60.7213 30.5943 60.3311 30.4758 59.9459L28.5642 60.5341C28.659 60.8422 28.68 61.0121 28.68 61.08H30.68ZM30.4672 59.9194L28.7072 54.7194L26.8128 55.3606L28.5728 60.5606L30.4672 59.9194ZM27.76 54.04H17.4V56.04H27.76V54.04ZM16.4589 54.702L14.4189 60.382L16.3011 61.058L18.3411 55.378L16.4589 54.702ZM14.4113 60.4038C14.3071 60.7164 14.2 61.0849 14.2 61.4H16.2C16.2 61.4297 16.1973 61.4417 16.1992 61.429C16.2008 61.4181 16.2048 61.3955 16.2134 61.359C16.2309 61.2849 16.2611 61.179 16.3087 61.0362L14.4113 60.4038ZM14.2 61.4C14.2 61.7418 14.3455 62.0696 14.6198 62.2982C14.852 62.4917 15.1096 62.5587 15.2756 62.5864L15.6044 60.6136C15.6104 60.6146 15.748 60.6349 15.9002 60.7618C15.9837 60.8314 16.0652 60.9284 16.123 61.0534C16.1804 61.1778 16.2 61.2991 16.2 61.4H14.2ZM15.1815 62.566L18.0215 63.326L18.5385 61.394L15.6985 60.634L15.1815 62.566ZM17.2847 62.2629L17.1247 63.9029L19.1153 64.0971L19.2753 62.4571L17.2847 62.2629ZM18.12 63H10.56V65H18.12V63ZM18.16 53.92H27.08V51.92H18.16V53.92ZM28.0242 52.5907L24.1042 41.3507L22.2158 42.0093L26.1358 53.2493L28.0242 52.5907ZM24.1087 41.3638C24.0205 41.0991 23.9598 40.8915 23.9221 40.7354C23.881 40.565 23.88 40.5067 23.88 40.52H21.88C21.88 40.9193 22.0307 41.4543 22.2113 41.9962L24.1087 41.3638ZM22.88 39.52H22.48V41.52H22.88V39.52ZM21.5357 40.191L17.2157 52.591L19.1043 53.249L23.4243 40.849L21.5357 40.191ZM42.0769 60.72L41.4629 61.5094L41.4812 61.5236L41.5002 61.537L42.0769 60.72ZM44.2769 61.68L43.9757 62.6336L43.9905 62.6382L44.0054 62.6424L44.2769 61.68ZM50.9569 60.96L50.2854 60.219L50.9569 60.96ZM48.7969 52.88L49.2842 52.0068L49.2644 51.9957L49.2441 51.9856L48.7969 52.88ZM46.0769 51.68L45.6782 52.5971L45.6866 52.6007L45.6951 52.6043L46.0769 51.68ZM43.4769 50.52L43.0111 51.4049L43.0298 51.4147L43.0488 51.4237L43.4769 50.52ZM41.6769 49.44L41.0926 50.2515L41.1108 50.2647L41.1296 50.277L41.6769 49.44ZM40.1169 48L40.9062 47.3861L40.8994 47.3773L40.8924 47.3687L40.1169 48ZM41.3969 38.04L40.7821 37.2513L40.7765 37.2557L41.3969 38.04ZM54.5969 37L55.5892 36.876L55.5142 36.276L54.948 36.0637L54.5969 37ZM54.2769 43.76L54.3967 44.7528L55.1402 44.6631L55.2633 43.9244L54.2769 43.76ZM51.9569 44.04L50.9616 44.1369L51.0607 45.1554L52.0767 45.0328L51.9569 44.04ZM50.8769 39L50.2184 39.7526L50.2321 39.7646L50.2463 39.7761L50.8769 39ZM43.4369 39.2L44.0181 40.0137L44.0257 40.0083L44.0332 40.0027L43.4369 39.2ZM42.4769 44.16L41.5824 44.6072H41.5824L42.4769 44.16ZM44.0769 45.8L43.5289 46.6365V46.6365L44.0769 45.8ZM45.9169 46.88L46.3782 45.9928L46.3606 45.9836L46.3427 45.9752L45.9169 46.88ZM48.7169 48.16L49.1058 47.2387L48.7169 48.16ZM51.5169 49.48L52.0055 48.6075H52.0055L51.5169 49.48ZM53.6769 50.96L54.3197 50.194L54.3091 50.1851L54.2983 50.1765L53.6769 50.96ZM53.3569 62.16L52.7051 61.4016L52.6992 61.4067L53.3569 62.16ZM41.7169 63.8L41.4665 64.7681L41.4762 64.7707L41.486 64.773L41.7169 63.8ZM38.3169 62.64L37.3467 62.8825L37.4561 63.3201L37.8566 63.5278L38.3169 62.64ZM38.6769 56L38.6243 55.0014L37.8389 55.0427L37.694 55.8157L38.6769 56ZM40.9569 55.88L41.9508 55.7696L41.8466 54.8318L40.9043 54.8814L40.9569 55.88ZM41.4769 59.6L40.5041 59.8316L40.5092 59.8533L40.5154 59.8747L41.4769 59.6ZM41.5002 61.537C42.0831 61.9485 42.9367 62.3055 43.9757 62.6336L44.578 60.7264C43.5904 60.4145 42.9773 60.1315 42.6536 59.903L41.5002 61.537ZM44.0054 62.6424C45.1482 62.9648 46.4015 63.12 47.7569 63.12V61.12C46.5523 61.12 45.4855 60.9819 44.5483 60.7176L44.0054 62.6424ZM47.7569 63.12C49.2552 63.12 50.5701 62.66 51.6284 61.701L50.2854 60.219C49.6369 60.8066 48.8185 61.12 47.7569 61.12V63.12ZM51.6284 61.701C52.7201 60.7116 53.2369 59.3869 53.2369 57.84H51.2369C51.2369 58.9064 50.9003 59.6618 50.2854 60.219L51.6284 61.701ZM53.2369 57.84C53.2369 55.3417 51.7857 53.4029 49.2842 52.0068L48.3095 53.7532C50.3948 54.9171 51.2369 56.2849 51.2369 57.84H53.2369ZM49.2441 51.9856C48.6239 51.6755 47.6899 51.2643 46.4586 50.7557L45.6951 52.6043C46.9172 53.109 47.7965 53.4979 48.3497 53.7744L49.2441 51.9856ZM46.4756 50.7629C45.2491 50.2297 44.3956 49.8487 43.905 49.6163L43.0488 51.4237C43.5715 51.6713 44.4513 52.0637 45.6782 52.5971L46.4756 50.7629ZM43.9426 49.6351C43.4731 49.388 42.9016 49.046 42.2241 48.603L41.1296 50.277C41.8388 50.7407 42.4673 51.1187 43.0111 51.4049L43.9426 49.6351ZM42.2612 48.6285C41.6467 48.1861 41.2046 47.7696 40.9062 47.3861L39.3275 48.6139C39.7759 49.1904 40.3737 49.7339 41.0926 50.2515L42.2612 48.6285ZM40.8924 47.3687C40.1215 46.4216 39.7169 45.2522 39.7169 43.8H37.7169C37.7169 45.6544 38.2456 47.2851 39.3413 48.6313L40.8924 47.3687ZM39.7169 43.8C39.7169 41.656 40.4878 40.0341 42.0173 38.8243L40.7765 37.2557C38.7326 38.8725 37.7169 41.0906 37.7169 43.8H39.7169ZM42.0116 38.8287C43.6088 37.5838 45.7222 36.92 48.4369 36.92V34.92C45.3915 34.92 42.8116 35.6695 40.7821 37.2513L42.0116 38.8287ZM48.4369 36.92C50.5117 36.92 52.4453 37.2612 54.2458 37.9363L54.948 36.0637C52.9085 35.2988 50.7354 34.92 48.4369 34.92V36.92ZM53.6046 37.124C53.6772 37.7051 53.7169 38.5118 53.7169 39.56H55.7169C55.7169 38.4749 55.6765 37.5749 55.5892 36.876L53.6046 37.124ZM53.7169 39.56C53.7169 40.5196 53.5802 41.8574 53.2905 43.5956L55.2633 43.9244C55.5602 42.1426 55.7169 40.6804 55.7169 39.56H53.7169ZM54.1571 42.7672L51.8371 43.0472L52.0767 45.0328L54.3967 44.7528L54.1571 42.7672ZM52.9522 43.9431C52.8041 42.4224 52.6364 41.2054 52.4447 40.3105C52.3492 39.8647 52.2419 39.4708 52.1166 39.1481C52.0058 38.8626 51.8266 38.4831 51.5075 38.2239L50.2463 39.7761C50.1405 39.6902 50.1663 39.6507 50.2521 39.8719C50.3236 40.0558 50.4046 40.3353 50.4891 40.7295C50.6573 41.5146 50.8163 42.6442 50.9616 44.1369L52.9522 43.9431ZM51.5354 38.2474C50.6016 37.4304 49.0983 37.16 47.3569 37.16V39.16C49.0288 39.16 49.8722 39.4496 50.2184 39.7526L51.5354 38.2474ZM47.3569 37.16C45.5541 37.16 44.0079 37.5301 42.8405 38.3973L44.0332 40.0027C44.7325 39.4832 45.7996 39.16 47.3569 39.16V37.16ZM42.8556 38.3863C41.62 39.2689 41.0369 40.5822 41.0369 42.16H43.0369C43.0369 41.1245 43.3871 40.4645 44.0181 40.0137L42.8556 38.3863ZM41.0369 42.16C41.0369 43.0403 41.2106 43.8636 41.5824 44.6072L43.3713 43.7128C43.1565 43.2831 43.0369 42.773 43.0369 42.16H41.0369ZM41.5824 44.6072C41.9807 45.4037 42.6651 46.0706 43.5289 46.6365L44.6249 44.9635C43.942 44.5161 43.5597 44.0896 43.3713 43.7128L41.5824 44.6072ZM43.5289 46.6365C44.3145 47.1512 44.974 47.5415 45.4911 47.7848L46.3427 45.9752C45.9531 45.7919 45.3859 45.4621 44.6249 44.9635L43.5289 46.6365ZM45.4555 47.7672C46.1569 48.1319 47.1183 48.5705 48.3279 49.0812L49.1058 47.2387C47.9154 46.7361 47.0102 46.3214 46.3782 45.9928L45.4555 47.7672ZM48.3279 49.0812C49.5139 49.582 50.4086 50.0055 51.0283 50.3525L52.0055 48.6075C51.2919 48.2079 50.3198 47.7513 49.1058 47.2387L48.3279 49.0812ZM51.0283 50.3525C51.6372 50.6935 52.3126 51.1543 53.0555 51.7435L54.2983 50.1765C53.4945 49.539 52.7299 49.0132 52.0055 48.6075L51.0283 50.3525ZM53.034 51.726C54.252 52.7482 54.9169 54.2518 54.9169 56.4H56.9169C56.9169 53.8016 56.0884 51.6784 54.3197 50.194L53.034 51.726ZM54.9169 56.4C54.9169 58.5 54.1773 60.1364 52.7051 61.4016L54.0086 62.9184C55.9498 61.2503 56.9169 59.0466 56.9169 56.4H54.9169ZM52.6992 61.4067C51.2524 62.6698 49.206 63.36 46.4369 63.36V65.36C49.5345 65.36 52.1013 64.5836 54.0145 62.9133L52.6992 61.4067ZM46.4369 63.36C44.9434 63.36 43.4475 63.1829 41.9478 62.827L41.486 64.773C43.1329 65.1638 44.7837 65.36 46.4369 65.36V63.36ZM41.9673 62.8319C40.4376 62.4362 39.3937 62.0719 38.7772 61.7522L37.8566 63.5278C38.6801 63.9548 39.9028 64.3638 41.4665 64.7681L41.9673 62.8319ZM39.287 62.3975C39.2725 62.3395 39.2453 62.1544 39.2255 61.7774C39.2068 61.4219 39.1969 60.9512 39.1969 60.36H37.1969C37.1969 60.9688 37.207 61.4781 37.2283 61.8826C37.2484 62.2656 37.2812 62.6205 37.3467 62.8825L39.287 62.3975ZM39.1969 60.36C39.1969 59.2425 39.3466 57.8546 39.6597 56.1843L37.694 55.8157C37.3672 57.5588 37.1969 59.0775 37.1969 60.36H39.1969ZM38.7294 56.9986L41.0094 56.8786L40.9043 54.8814L38.6243 55.0014L38.7294 56.9986ZM39.963 55.9904C40.1746 57.895 40.3537 59.2001 40.5041 59.8316L42.4497 59.3684C42.3334 58.8799 42.1658 57.705 41.9508 55.7696L39.963 55.9904ZM40.5154 59.8747C40.6882 60.4796 40.9601 61.1183 41.4629 61.5094L42.6908 59.9306C42.7156 59.9499 42.6866 59.9364 42.6284 59.8278C42.5719 59.7223 42.5056 59.5603 42.4384 59.3253L40.5154 59.8747ZM61.0144 42.64L61.8987 43.107L61.9002 43.104L61.0144 42.64ZM67.6144 36.8L67.2751 35.8593L67.2651 35.863L67.6144 36.8ZM77.7744 36.32L77.9361 35.3332L77.7744 36.32ZM80.9744 37.04L81.9615 36.8799L81.8728 36.3333L81.3624 36.1184L80.9744 37.04ZM81.1344 43.76L81.2734 44.7503L82.1002 44.6342L82.1336 43.8L81.1344 43.76ZM78.8544 44.08L77.8719 44.2663L78.0495 45.2028L78.9934 45.0703L78.8544 44.08ZM77.2944 38.96L76.6804 39.7494L76.6987 39.7636L76.7177 39.777L77.2944 38.96ZM75.4144 38.36L75.203 39.3374L75.2084 39.3385L75.4144 38.36ZM65.8144 41.28L66.6369 41.8487L65.8144 41.28ZM66.4144 59.08L65.6836 59.7627L66.4144 59.08ZM76.2944 61.76L76.0385 60.7933L76.0313 60.7952L76.2944 61.76ZM78.0544 61.08L77.4662 60.2713L77.4476 60.2848L77.4297 60.2991L78.0544 61.08ZM79.3744 56L79.4107 55.0007L78.548 54.9693L78.391 55.8182L79.3744 56ZM81.5744 56.08H82.5744V55.1157L81.6107 55.0807L81.5744 56.08ZM81.1344 62.56L81.6152 63.4368L82.0617 63.192L82.1263 62.6869L81.1344 62.56ZM77.3744 63.8L77.1574 62.8238L77.1541 62.8246L77.3744 63.8ZM62.4544 60.52L63.2108 59.866L62.4544 60.52ZM60.1344 50.76C60.1344 47.8609 60.7309 45.3182 61.8986 43.107L60.1301 42.173C58.7912 44.7084 58.1344 47.5791 58.1344 50.76H60.1344ZM61.9002 43.104C63.2537 40.5201 65.2638 38.7433 67.9636 37.737L67.2651 35.863C64.0983 37.0433 61.7084 39.1599 60.1285 42.176L61.9002 43.104ZM67.9536 37.7407C69.4695 37.194 71.0479 36.92 72.6944 36.92V34.92C70.8208 34.92 69.0125 35.2327 67.2751 35.8593L67.9536 37.7407ZM72.6944 36.92C74.4038 36.92 76.0429 37.0495 77.6126 37.3068L77.9361 35.3332C76.2525 35.0572 74.5049 34.92 72.6944 34.92V36.92ZM77.6126 37.3068C79.2595 37.5768 80.2072 37.802 80.5863 37.9616L81.3624 36.1184C80.7282 35.8513 79.5426 35.5965 77.9361 35.3332L77.6126 37.3068ZM79.9873 37.2001C80.1379 38.1292 80.2144 39.1153 80.2144 40.16H82.2144C82.2144 39.018 82.1308 37.9242 81.9615 36.8799L79.9873 37.2001ZM80.2144 40.16C80.2144 41.2105 80.1881 42.3969 80.1352 43.72L82.1336 43.8C82.1873 42.4565 82.2144 41.2428 82.2144 40.16H80.2144ZM80.9954 42.7697L78.7154 43.0897L78.9934 45.0703L81.2734 44.7503L80.9954 42.7697ZM79.8369 43.8937C79.541 42.3339 79.2565 41.0929 78.981 40.1885C78.8437 39.738 78.7008 39.3446 78.5483 39.0271C78.4141 38.7476 78.2056 38.3792 77.8711 38.143L76.7177 39.777C76.6098 39.7008 76.6364 39.6658 76.7454 39.8929C76.8363 40.0821 76.9451 40.3687 77.0678 40.7715C77.3122 41.5737 77.581 42.7328 77.8719 44.2663L79.8369 43.8937ZM77.9083 38.1706C77.6385 37.9608 77.2741 37.8213 76.9484 37.7173C76.5901 37.603 76.1437 37.4916 75.6204 37.3814L75.2084 39.3385C75.6984 39.4417 76.072 39.537 76.3403 39.6227C76.6413 39.7187 76.7103 39.7726 76.6804 39.7494L77.9083 38.1706ZM75.6257 37.3826C74.5712 37.1546 73.5137 37.04 72.4544 37.04V39.04C73.3684 39.04 74.2842 39.1387 75.203 39.3374L75.6257 37.3826ZM72.4544 37.04C69.2375 37.04 66.696 38.2463 64.9918 40.7113L66.6369 41.8487C67.9194 39.9937 69.8046 39.04 72.4544 39.04V37.04ZM64.9918 40.7113C63.3495 43.0868 62.5744 46.1448 62.5744 49.8H64.5744C64.5744 46.4152 65.2925 43.7932 66.6369 41.8487L64.9918 40.7113ZM62.5744 49.8C62.5744 54.0895 63.548 57.4767 65.6836 59.7627L67.1451 58.3973C65.4941 56.63 64.5744 53.8305 64.5744 49.8H62.5744ZM65.6836 59.7627C67.7681 61.9939 70.3804 63.12 73.4544 63.12V61.12C70.9284 61.12 68.8473 60.2194 67.1451 58.3973L65.6836 59.7627ZM73.4544 63.12C74.5469 63.12 75.5828 62.9906 76.5575 62.7248L76.0313 60.7952C75.2459 61.0094 74.3885 61.12 73.4544 61.12V63.12ZM76.5503 62.7267C77.0237 62.6014 77.4351 62.474 77.7748 62.3428C78.0975 62.2181 78.425 62.0642 78.6791 61.8609L77.4297 60.2991C77.4309 60.2982 77.4055 60.3179 77.3361 60.3537C77.2692 60.3882 77.1768 60.4297 77.054 60.4772C76.807 60.5726 76.4718 60.6786 76.0385 60.7933L76.5503 62.7267ZM78.6425 61.8887C78.8553 61.734 78.9797 61.5324 79.0416 61.423C79.1162 61.2912 79.1798 61.1455 79.2352 61.0015C79.3466 60.7119 79.4584 60.3396 79.5722 59.9015C79.8013 59.0201 80.063 57.7759 80.3577 56.1818L78.391 55.8182C78.0991 57.3974 77.8475 58.5865 77.6365 59.3985C77.5303 59.8071 77.4405 60.0964 77.3685 60.2835C77.3322 60.3779 77.3088 60.4242 77.3009 60.4382C77.2803 60.4746 77.3268 60.3727 77.4662 60.2713L78.6425 61.8887ZM79.338 56.9993L81.538 57.0793L81.6107 55.0807L79.4107 55.0007L79.338 56.9993ZM80.5744 56.08C80.5744 58.0588 80.4311 60.1761 80.1425 62.4331L82.1263 62.6869C82.4243 60.3572 82.5744 58.1545 82.5744 56.08H80.5744ZM80.6535 61.6832C79.9516 62.0681 78.8079 62.4571 77.1574 62.8238L77.5913 64.7762C79.3009 64.3963 80.6638 63.9586 81.6152 63.4368L80.6535 61.6832ZM77.1541 62.8246C75.5747 63.1812 73.9553 63.36 72.2944 63.36V65.36C74.1001 65.36 75.8674 65.1655 77.5946 64.7754L77.1541 62.8246ZM72.2944 63.36C68.1496 63.36 65.1831 62.1471 63.2108 59.866L61.6979 61.174C64.1523 64.0129 67.7458 65.36 72.2944 65.36V63.36ZM63.2108 59.866C61.1802 57.5172 60.1344 54.5087 60.1344 50.76H58.1344C58.1344 54.9047 59.3019 58.4028 61.6979 61.174L63.2108 59.866ZM84.5391 64L83.5507 64.1521L83.6811 65H84.5391V64ZM84.2991 62.44L84.1316 61.4541L83.161 61.6189L83.3107 62.5921L84.2991 62.44ZM86.8591 61.64L86.1833 60.9028L86.1673 60.9175L86.152 60.9329L86.8591 61.64ZM86.8591 38.64L86.152 39.3471L86.1673 39.3625L86.1833 39.3772L86.8591 38.64ZM84.2991 37.84L83.3107 37.6879L83.161 38.6611L84.1316 38.8259L84.2991 37.84ZM84.5391 36.28V35.28H83.6811L83.5507 36.1279L84.5391 36.28ZM103.179 36.28L104.166 36.1199L104.03 35.28H103.179V36.28ZM103.339 42.52L103.461 43.5125L104.301 43.4093L104.338 42.5634L103.339 42.52ZM101.059 42.8L100.079 42.9988L100.263 43.9053L101.181 43.7925L101.059 42.8ZM100.259 39.36L99.3104 39.6762L99.3132 39.6845L99.3161 39.6928L100.259 39.36ZM99.6991 38.6L99.8231 37.6077L99.8231 37.6077L99.6991 38.6ZM97.2591 38.44L97.2861 37.4403L97.2789 37.4402L97.2591 38.44ZM91.2191 38.32L91.2389 37.3202L90.2191 37.2999V38.32H91.2191ZM91.2191 49.08H90.2191V50.08H91.2191V49.08ZM98.4991 46.24L98.5954 45.2446L97.7521 45.163L97.5331 45.9815L98.4991 46.24ZM99.7391 46.36H100.739V45.4521L99.8354 45.3646L99.7391 46.36ZM99.8191 50.44L98.8214 50.5088L98.8226 50.5259L98.8244 50.5429L99.8191 50.44ZM99.9391 51.84H98.9391V51.9228L98.9527 52.0044L99.9391 51.84ZM100.099 53L99.1075 53.1293L99.1102 53.1504L99.1139 53.1713L100.099 53ZM100.299 54.28L100.463 55.2664L101.398 55.1107L101.293 54.1696L100.299 54.28ZM98.8591 54.52L97.8963 54.7903L98.1387 55.6539L99.0235 55.5064L98.8591 54.52ZM97.9791 51.72L97.0457 52.079L97.0574 52.1094L97.0711 52.1391L97.9791 51.72ZM91.2191 51.2V50.2H90.2191V51.2H91.2191ZM91.2191 61.96H90.2191V62.9713L91.2303 62.9599L91.2191 61.96ZM94.7791 61.92V60.9199L94.7678 60.9201L94.7791 61.92ZM100.299 61.44L100.732 62.3415L100.795 62.3111L100.854 62.272L100.299 61.44ZM100.459 61.36V62.36H100.603L100.741 62.3194L100.459 61.36ZM102.219 56.64L102.31 55.6441L101.448 55.5657L101.246 56.4076L102.219 56.64ZM104.419 56.84L105.417 56.7813L105.367 55.922L104.51 55.8441L104.419 56.84ZM104.019 64V65H104.883L105.008 64.1451L104.019 64ZM85.5274 63.8479L85.2874 62.2879L83.3107 62.5921L83.5507 64.1521L85.5274 63.8479ZM84.4665 63.4259C85.1944 63.3023 85.8102 63.1667 86.2973 63.0145C86.7392 62.8764 87.234 62.6793 87.5662 62.3471L86.152 60.9329C86.1908 60.8941 86.1123 60.9769 85.7008 61.1055C85.3346 61.2199 84.817 61.3377 84.1316 61.4541L84.4665 63.4259ZM87.5348 62.3772C88.1846 61.7815 88.3391 60.8387 88.3391 59.96H86.3391C86.3391 60.3159 86.3038 60.5633 86.2575 60.7253C86.2115 60.8866 86.1682 60.9167 86.1833 60.9028L87.5348 62.3772ZM88.3391 59.96V40.32H86.3391V59.96H88.3391ZM88.3391 40.32C88.3391 39.4413 88.1846 38.4985 87.5348 37.9028L86.1833 39.3772C86.1682 39.3633 86.2115 39.3934 86.2575 39.5547C86.3038 39.7167 86.3391 39.9641 86.3391 40.32H88.3391ZM87.5662 37.9329C87.234 37.6007 86.7392 37.4036 86.2973 37.2655C85.8102 37.1133 85.1944 36.9777 84.4665 36.8541L84.1316 38.8259C84.817 38.9423 85.3346 39.06 85.7008 39.1745C86.1123 39.3031 86.1908 39.3859 86.152 39.3471L87.5662 37.9329ZM85.2874 37.9921L85.5274 36.4321L83.5507 36.1279L83.3107 37.6879L85.2874 37.9921ZM84.5391 37.28H103.179V35.28H84.5391V37.28ZM102.192 36.4401C102.343 37.3745 102.419 38.3076 102.419 39.24H104.419C104.419 38.199 104.335 37.1588 104.166 36.1199L102.192 36.4401ZM102.419 39.24C102.419 40.1822 102.393 41.2606 102.34 42.4766L104.338 42.5634C104.392 41.3261 104.419 40.2178 104.419 39.24H102.419ZM103.217 41.5275L100.937 41.8075L101.181 43.7925L103.461 43.5125L103.217 41.5275ZM102.039 42.6012C101.671 40.7857 101.39 39.5608 101.202 39.0272L99.3161 39.6928C99.4477 40.0658 99.7007 41.1343 100.079 42.9988L102.039 42.6012ZM101.208 39.0438C101.112 38.7571 100.986 38.463 100.804 38.2168C100.624 37.9723 100.307 37.6682 99.8231 37.6077L99.575 39.5923C99.4459 39.5761 99.3458 39.5274 99.2806 39.4817C99.2202 39.4394 99.1941 39.4034 99.194 39.4032C99.1933 39.4022 99.2068 39.4208 99.23 39.4699C99.2527 39.5179 99.2801 39.5853 99.3104 39.6762L101.208 39.0438ZM99.8231 37.6077C99.1388 37.5222 98.2901 37.4675 97.2861 37.4404L97.232 39.4396C98.2013 39.4658 98.9793 39.5178 99.575 39.5923L99.8231 37.6077ZM97.2789 37.4402L91.2389 37.3202L91.1992 39.3198L97.2392 39.4398L97.2789 37.4402ZM90.2191 38.32V49.08H92.2191V38.32H90.2191ZM91.2191 50.08H97.2191V48.08H91.2191V50.08ZM97.2191 50.08C97.7713 50.08 98.1199 49.7171 98.2685 49.5351C98.4456 49.3183 98.5894 49.05 98.7107 48.7809C98.9579 48.2326 99.2077 47.4602 99.4651 46.4985L97.5331 45.9815C97.2837 46.9132 97.0669 47.5608 96.8874 47.9591C96.7953 48.1633 96.7358 48.25 96.7196 48.2699C96.6749 48.3246 96.8402 48.08 97.2191 48.08V50.08ZM98.4027 47.2353L99.6427 47.3553L99.8354 45.3646L98.5954 45.2446L98.4027 47.2353ZM98.7391 46.36C98.7391 48.3056 98.7654 49.6971 98.8214 50.5088L100.817 50.3712C100.766 49.6362 100.739 48.3077 100.739 46.36H98.7391ZM98.8244 50.5429C98.8641 50.927 98.8934 51.2304 98.9127 51.4554C98.9224 51.568 98.9292 51.6577 98.9336 51.7262C98.9358 51.7604 98.9372 51.7873 98.9381 51.8078C98.9385 51.818 98.9388 51.8258 98.9389 51.8316C98.9391 51.8375 98.9391 51.8401 98.9391 51.84H100.939C100.939 51.6152 100.891 51.0847 100.814 50.3371L98.8244 50.5429ZM98.9527 52.0044C98.9758 52.1431 99.0267 52.51 99.1075 53.1293L101.091 52.8707C101.011 52.2633 100.956 51.8569 100.925 51.6756L98.9527 52.0044ZM99.1139 53.1713C99.2208 53.7862 99.2823 54.1848 99.3052 54.3904L101.293 54.1696C101.262 53.8952 101.191 53.4404 101.084 52.8287L99.1139 53.1713ZM100.135 53.2936L98.6947 53.5336L99.0235 55.5064L100.463 55.2664L100.135 53.2936ZM99.8219 54.2497C99.4038 52.7603 99.0881 51.7366 98.887 51.3009L97.0711 52.1391C97.19 52.3967 97.461 53.2397 97.8963 54.7903L99.8219 54.2497ZM98.9124 51.361C98.8235 51.1298 98.6946 50.8691 98.4939 50.6517C98.2778 50.4176 97.9413 50.2 97.4991 50.2V52.2C97.3845 52.2 97.2769 52.172 97.1869 52.1269C97.1014 52.0842 97.049 52.0351 97.0243 52.0083C96.9836 51.9642 97.0013 51.9636 97.0457 52.079L98.9124 51.361ZM97.4991 50.2H91.2191V52.2H97.4991V50.2ZM90.2191 51.2V61.96H92.2191V51.2H90.2191ZM91.2303 62.9599L94.7903 62.9199L94.7678 60.9201L91.2078 60.9601L91.2303 62.9599ZM94.7791 62.92C96.2991 62.92 97.5447 62.8798 98.5057 62.7962C99.4182 62.7169 100.215 62.5896 100.732 62.3415L99.8663 60.5385C99.7165 60.6104 99.2599 60.7231 98.3324 60.8038C97.4534 60.8802 96.2724 60.92 94.7791 60.92V62.92ZM100.854 62.272C100.877 62.2563 100.872 62.2615 100.846 62.2744C100.833 62.281 100.799 62.2973 100.75 62.3137C100.71 62.327 100.604 62.36 100.459 62.36V60.36C100.191 60.36 99.9864 60.4683 99.9519 60.4856C99.8727 60.5251 99.8007 60.5704 99.7444 60.608L100.854 62.272ZM100.741 62.3194C101.019 62.2376 101.219 62.0748 101.347 61.9448C101.48 61.8099 101.589 61.6567 101.678 61.5104C101.856 61.2186 102.02 60.848 102.176 60.4294C102.491 59.5851 102.829 58.3916 103.192 56.8724L101.246 56.4076C100.889 57.9017 100.574 59.0016 100.302 59.7306C100.165 60.0987 100.052 60.3347 99.9701 60.4696C99.9293 60.5367 99.912 60.5518 99.9234 60.5402C99.93 60.5336 100.012 60.449 100.177 60.4006L100.741 62.3194ZM102.129 57.6359L104.329 57.8359L104.51 55.8441L102.31 55.6441L102.129 57.6359ZM103.421 56.8987C103.446 57.319 103.459 58.1051 103.459 59.28H105.459C105.459 58.1082 105.446 57.2676 105.417 56.7813L103.421 56.8987ZM103.459 59.28C103.459 60.3549 103.32 61.8726 103.03 63.8549L105.008 64.1451C105.304 62.1274 105.459 60.4984 105.459 59.28H103.459ZM104.019 63H84.5391V65H104.019V63ZM108.211 64L107.223 64.1521L107.353 65H108.211V64ZM107.971 62.44L107.804 61.4541L106.833 61.6189L106.983 62.5921L107.971 62.44ZM110.531 61.64L109.855 60.9028L109.839 60.9175L109.824 60.9329L110.531 61.64ZM110.531 38.64L109.824 39.3471L109.839 39.3625L109.855 39.3772L110.531 38.64ZM107.971 37.84L106.983 37.6879L106.833 38.6611L107.804 38.8259L107.971 37.84ZM108.211 36.28V35.28H107.353L107.223 36.1279L108.211 36.28ZM115.851 36.28L116.678 35.7185L116.381 35.28H115.851V36.28ZM129.531 56.44L128.703 57.0015L129.001 57.44H129.531V56.44ZM129.811 56.44V57.44H130.811V56.44H129.811ZM129.131 38.72L128.447 39.4495L128.458 39.4599L128.469 39.4698L129.131 38.72ZM125.971 37.84L124.983 37.6879L124.824 38.7187L125.861 38.8339L125.971 37.84ZM126.211 36.28V35.28H125.353L125.223 36.1279L126.211 36.28ZM135.611 36.28L136.606 36.178L136.514 35.28H135.611V36.28ZM135.771 37.84L135.961 38.8218L136.859 38.648L136.766 37.738L135.771 37.84ZM133.291 38.32L133.101 37.3382L133.095 37.3394L133.291 38.32ZM132.491 64V65H133.491V64H132.491ZM130.011 64L129.182 64.5599L129.48 65H130.011V64ZM114.011 40.32L114.84 39.7601L114.542 39.32H114.011V40.32ZM113.691 40.32V39.32H112.691V40.32H113.691ZM114.051 61.48L113.251 62.08L113.266 62.1005L113.283 62.1202L114.051 61.48ZM115.451 62.08L115.578 61.0881L115.57 61.0871L115.451 62.08ZM118.251 62.44L119.246 62.542L119.345 61.5725L118.378 61.4482L118.251 62.44ZM118.091 64V65H118.994L119.086 64.102L118.091 64ZM109.199 63.8479L108.959 62.2879L106.983 62.5921L107.223 64.1521L109.199 63.8479ZM108.138 63.4259C108.866 63.3023 109.482 63.1667 109.969 63.0145C110.411 62.8764 110.906 62.6793 111.238 62.3471L109.824 60.9329C109.863 60.8941 109.784 60.9769 109.373 61.1055C109.006 61.2199 108.489 61.3377 107.804 61.4541L108.138 63.4259ZM111.207 62.3772C111.856 61.7815 112.011 60.8387 112.011 59.96H110.011C110.011 60.3159 109.976 60.5633 109.929 60.7253C109.883 60.8866 109.84 60.9167 109.855 60.9028L111.207 62.3772ZM112.011 59.96V40.32H110.011V59.96H112.011ZM112.011 40.32C112.011 39.4413 111.856 38.4985 111.207 37.9028L109.855 39.3772C109.84 39.3633 109.883 39.3934 109.929 39.5547C109.976 39.7167 110.011 39.9641 110.011 40.32H112.011ZM111.238 37.9329C110.906 37.6007 110.411 37.4036 109.969 37.2655C109.482 37.1133 108.866 36.9777 108.138 36.8541L107.804 38.8259C108.489 38.9423 109.006 39.06 109.373 39.1745C109.784 39.3031 109.863 39.3859 109.824 39.3471L111.238 37.9329ZM108.959 37.9921L109.199 36.4321L107.223 36.1279L106.983 37.6879L108.959 37.9921ZM108.211 37.28H111.291V35.28H108.211V37.28ZM111.291 37.28H113.651V35.28H111.291V37.28ZM113.651 37.28H115.851V35.28H113.651V37.28ZM115.023 36.8415L128.703 57.0015L130.358 55.8785L116.678 35.7185L115.023 36.8415ZM129.531 57.44H129.811V55.44H129.531V57.44ZM130.811 56.44V41.12H128.811V56.44H130.811ZM130.811 41.12C130.811 39.8839 130.596 38.6791 129.793 37.9702L128.469 39.4698C128.572 39.5609 128.811 39.9561 128.811 41.12H130.811ZM129.815 37.9905C129.421 37.621 128.858 37.3951 128.289 37.2367C127.691 37.0701 126.949 36.9425 126.081 36.8461L125.861 38.8339C126.673 38.9241 127.298 39.0366 127.753 39.1633C128.237 39.2982 128.414 39.419 128.447 39.4495L129.815 37.9905ZM126.959 37.9921L127.199 36.4321L125.223 36.1279L124.983 37.6879L126.959 37.9921ZM126.211 37.28H135.611V35.28H126.211V37.28ZM134.616 36.382L134.776 37.942L136.766 37.738L136.606 36.178L134.616 36.382ZM135.581 36.8582L133.101 37.3382L133.481 39.3018L135.961 38.8218L135.581 36.8582ZM133.095 37.3394C132.651 37.4282 132.213 37.6418 131.898 38.0503C131.591 38.4497 131.491 38.921 131.491 39.36H133.491C133.491 39.2876 133.499 39.2507 133.502 39.2397C133.504 39.2347 133.504 39.2363 133.501 39.2426C133.498 39.2491 133.492 39.2587 133.484 39.2697C133.475 39.2808 133.465 39.2909 133.455 39.2994C133.446 39.3078 133.438 39.3128 133.434 39.315C133.426 39.3193 133.439 39.3101 133.487 39.3006L133.095 37.3394ZM131.491 39.36V64H133.491V39.36H131.491ZM132.491 63H130.131V65H132.491V63ZM130.131 63H130.011V65H130.131V63ZM130.84 63.4401L114.84 39.7601L113.182 40.8799L129.182 64.5599L130.84 63.4401ZM114.011 39.32H113.691V41.32H114.011V39.32ZM112.691 40.32V60H114.691V40.32H112.691ZM112.691 60C112.691 60.7518 112.82 61.5052 113.251 62.08L114.851 60.88C114.802 60.8148 114.691 60.5816 114.691 60H112.691ZM113.283 62.1202C113.788 62.7265 114.559 62.9802 115.332 63.0729L115.57 61.0871C115.009 61.0198 114.847 60.8735 114.819 60.8398L113.283 62.1202ZM115.323 63.0718L118.123 63.4318L118.378 61.4482L115.578 61.0882L115.323 63.0718ZM117.256 62.338L117.096 63.898L119.086 64.102L119.246 62.542L117.256 62.338ZM118.091 63H108.211V65H118.091V63ZM139.227 64L138.238 64.1521L138.369 65H139.227V64ZM138.987 62.44L138.819 61.4541L137.848 61.6189L137.998 62.5921L138.987 62.44ZM141.547 61.64L140.871 60.9028L140.855 60.9175L140.839 60.9329L141.547 61.64ZM141.547 38.64L140.839 39.3471L140.855 39.3625L140.871 39.3772L141.547 38.64ZM138.987 37.84L137.998 37.6879L137.848 38.6611L138.819 38.8259L138.987 37.84ZM139.227 36.28V35.28H138.369L138.238 36.1279L139.227 36.28ZM157.707 37.4L157.3 38.3139L157.313 38.3191L157.707 37.4ZM161.627 40.4L160.819 40.9892L160.822 40.9944L161.627 40.4ZM161.307 59.24L160.494 58.6573L160.489 58.6645L161.307 59.24ZM157.067 62.72L157.498 63.6224L157.503 63.6197L157.067 62.72ZM146.747 61.32L146.943 60.3394L146.934 60.3377L146.747 61.32ZM157.667 58.72L158.482 59.2983L157.667 58.72ZM159.027 44.52L158.081 44.8455L158.083 44.8524L158.086 44.8593L159.027 44.52ZM156.747 40.8L157.411 40.0526L157.408 40.0502L156.747 40.8ZM145.907 38.4V37.4H144.907V38.4H145.907ZM140.215 63.8479L139.975 62.2879L137.998 62.5921L138.238 64.1521L140.215 63.8479ZM139.154 63.4259C139.882 63.3023 140.498 63.1667 140.985 63.0145C141.427 62.8764 141.922 62.6793 142.254 62.3471L140.839 60.9329C140.878 60.8941 140.8 60.9769 140.388 61.1055C140.022 61.2199 139.505 61.3377 138.819 61.4541L139.154 63.4259ZM142.222 62.3772C142.872 61.7815 143.027 60.8387 143.027 59.96H141.027C141.027 60.3159 140.991 60.5633 140.945 60.7253C140.899 60.8866 140.856 60.9167 140.871 60.9028L142.222 62.3772ZM143.027 59.96V40.32H141.027V59.96H143.027ZM143.027 40.32C143.027 39.4413 142.872 38.4985 142.222 37.9028L140.871 39.3772C140.856 39.3633 140.899 39.3934 140.945 39.5547C140.991 39.7167 141.027 39.9641 141.027 40.32H143.027ZM142.254 37.9329C141.922 37.6007 141.427 37.4036 140.985 37.2655C140.498 37.1133 139.882 36.9777 139.154 36.8541L138.819 38.8259C139.505 38.9423 140.022 39.06 140.388 39.1745C140.8 39.3031 140.878 39.3859 140.839 39.3471L142.254 37.9329ZM139.975 37.9921L140.215 36.4321L138.238 36.1279L137.998 37.6879L139.975 37.9921ZM139.227 37.28H151.747V35.28H139.227V37.28ZM151.747 37.28C153.934 37.28 155.776 37.6362 157.3 38.3138L158.113 36.4862C156.277 35.6705 154.146 35.28 151.747 35.28V37.28ZM157.313 38.3191C158.853 38.9794 160.007 39.8755 160.819 40.9892L162.435 39.8108C161.38 38.3645 159.92 37.2606 158.1 36.4809L157.313 38.3191ZM160.822 40.9944C162.492 43.2527 163.347 45.9969 163.347 49.28H165.347C165.347 45.6298 164.388 42.454 162.431 39.8056L160.822 40.9944ZM163.347 49.28C163.347 52.9055 162.387 56.017 160.494 58.6573L162.119 59.8227C164.28 56.8097 165.347 53.2812 165.347 49.28H163.347ZM160.489 58.6645C159.586 59.9469 158.313 61.0035 156.63 61.8203L157.503 63.6197C159.447 62.6765 161 61.4131 162.124 59.8155L160.489 58.6645ZM156.636 61.8176C155.006 62.5959 153.091 63 150.867 63V65C153.335 65 155.554 64.5508 157.498 63.6224L156.636 61.8176ZM150.867 63H139.227V65H150.867V63ZM144.907 60.28C144.907 60.7291 145.015 61.2077 145.339 61.6083C145.665 62.0125 146.113 62.2174 146.559 62.3023L146.934 60.3377C146.875 60.3265 146.853 60.3146 146.854 60.315C146.855 60.3153 146.86 60.3184 146.868 60.3251C146.877 60.332 146.886 60.3409 146.895 60.3517C146.903 60.3624 146.909 60.3723 146.913 60.3799C146.917 60.3874 146.918 60.3906 146.917 60.3877C146.915 60.3809 146.907 60.3485 146.907 60.28H144.907ZM146.55 62.3006C148.432 62.6768 149.924 62.88 150.987 62.88V60.88C150.129 60.88 148.795 60.7098 146.943 60.3394L146.55 62.3006ZM150.987 62.88C154.216 62.88 156.772 61.7111 158.482 59.2983L156.851 58.1417C155.574 59.9422 153.677 60.88 150.987 60.88V62.88ZM158.482 59.2983C160.132 56.9711 160.907 53.9335 160.907 50.28H158.907C158.907 53.6665 158.188 56.2556 156.851 58.1417L158.482 59.2983ZM160.907 50.28C160.907 47.9818 160.602 45.9419 159.967 44.1807L158.086 44.8593C158.624 46.3515 158.907 48.1515 158.907 50.28H160.907ZM159.972 44.1945C159.374 42.4585 158.536 41.0523 157.411 40.0526L156.082 41.5474C156.877 42.2543 157.559 43.3282 158.081 44.8455L159.972 44.1945ZM157.408 40.0502C155.438 38.312 153.236 37.4 150.827 37.4V39.4C152.684 39.4 154.428 40.088 156.085 41.5498L157.408 40.0502ZM150.827 37.4H145.907V39.4H150.827V37.4ZM144.907 38.4V60.28H146.907V38.4H144.907Z" fill="#4AD5B9" mask="url(#path-1-outside-1_2503_806)"/>
<defs>
<radialGradient id="paint0_angular_2503_806" cx="0" cy="0" r="1" gradientUnits="userSpaceOnUse" gradientTransform="translate(202 49) rotate(90) scale(20 192)">
<stop stop-color="#E62929"/>
<stop offset="1" stop-color="#1EE861"/>
</radialGradient>
</defs>
</svg>
